<!-- icon666.com - MILLIONS vector ICONS FREE --><svg id="Layer_1" enable-background="new 0 0 512 512" viewBox="0 0 512 512" xmlns="http://www.w3.org/2000/svg"><g><path d="m432.948 346.339c-12.145-16.722-29.252-29.155-48.902-35.554l-48.899-150.54c12.139-16.725 18.675-36.837 18.675-57.504 0-52.512-37.836-81.702-62.579-91.273-5.059-1.956-10.795-.745-14.631 3.09l-20.612 20.611-20.611-20.61c-3.835-3.836-9.571-5.045-14.631-3.091-24.851 9.613-62.579 38.841-62.579 91.273 0 20.667 6.536 40.78 18.684 57.504l-48.908 150.54c-19.65 6.399-36.757 18.832-48.902 35.554-30.858 42.489-17.398 88.341-3.002 110.625 2.943 4.555 8.297 6.946 13.654 6.098l28.79-4.564 4.566 28.788c.849 5.357 4.779 9.707 10.021 11.099 25.756 6.826 73.459 5.347 104.27-37.076 12.145-16.722 18.65-36.836 18.649-57.507-.001 20.671 6.504 40.785 18.649 57.507 30.811 42.423 78.514 43.902 104.27 37.076 5.243-1.392 9.173-5.742 10.022-11.099l4.566-28.788 28.79 4.564c5.357.849 10.71-1.542 13.654-6.098 14.394-22.284 27.854-68.136-3.004-110.625z" fill="#ffe5ec"></path><path d="m256 403.801c-.001 20.671 6.504 40.785 18.649 57.507 30.811 42.423 78.514 43.902 104.27 37.076 5.243-1.392 9.173-5.742 10.022-11.099l4.566-28.788 28.79 4.564c5.357.849 10.71-1.542 13.654-6.098 14.396-22.284 27.856-68.136-3.002-110.625-12.145-16.722-29.252-29.155-48.902-35.554l-48.899-150.54c12.139-16.725 18.675-36.837 18.675-57.504 0-52.512-37.836-81.702-62.579-91.273-5.059-1.956-10.795-.745-14.631 3.09l-20.612 20.611z" fill="#ffc9d8"></path><path d="m21.796 156.036c-3.423 4.207-4.043 10.037-1.581 14.87l13.235 25.972-25.97 13.235c-4.833 2.462-7.755 7.544-7.46 12.96 1.465 26.605 17.608 71.517 67.475 87.715 19.656 6.385 40.804 6.382 60.463-.004l128.042-41.618-79.142-108.925c-12.157-16.711-29.266-29.141-48.922-35.526-49.943-16.223-89.394 10.745-106.14 31.321z" fill="#ffc9d8"></path><path d="m490.204 156.036c3.423 4.207 4.043 10.037 1.581 14.87l-13.235 25.972 25.97 13.236c4.833 2.462 7.755 7.544 7.46 12.96-1.465 26.605-17.608 71.517-67.475 87.715-19.656 6.385-40.804 6.382-60.463-.004l-128.042-41.619 79.142-108.925c12.157-16.711 29.266-29.141 48.922-35.526 49.943-16.223 89.394 10.745 106.14 31.321z" fill="#ffaec4"></path><path d="m205.345 285.638-28.503-28.073c-8.806-8.674-3.931-23.678 8.292-25.519l39.564-5.959 17.885-35.776c5.527-11.056 21.303-11.057 26.832-.003l17.896 35.779 39.561 5.959c12.223 1.841 17.098 16.847 8.291 25.52l-28.507 28.073 6.559 39.464c2.027 12.193-10.737 21.467-21.708 15.773l-35.511-18.434-35.501 18.431c-10.971 5.696-23.735-3.578-21.709-15.772z" fill="#ffaec4"></path><path d="m326.872 232.045-39.561-5.959-17.896-35.779c-2.764-5.526-8.089-8.29-13.415-8.29v140.427l35.506 18.431c10.971 5.695 23.734-3.579 21.708-15.773l-6.559-39.464 28.507-28.073c8.808-8.673 3.933-23.679-8.29-25.52z" fill="#ff93b1"></path></g></svg>